<svg width="22" height="22" viewBox="0 0 22 22" fill="none" xmlns="http://www.w3.org/2000/svg">
<path d="M18.8261 1H3.17391C1.97529 1 1 1.97529 1 3.17391V18.8261C1 20.0247 1.97529 21 3.17391 21H18.8261C20.0247 21 21 20.0247 21 18.8261V3.17391C21 1.97529 20.0247 1 18.8261 1ZM10.1304 14.0435H7.08696V11.4348H10.1304C10.3703 11.4348 10.5652 11.2399 10.5652 11V8.3913C10.5652 6.7131 11.9309 5.34783 13.6087 5.34783H16.6522V7.95652H13.6087C13.3682 7.95652 13.1739 8.15141 13.1739 8.3913V11C13.1739 11.2399 13.3682 11.4348 13.6087 11.4348H16.6522V14.0435H13.6087C13.3682 14.0435 13.1739 14.2384 13.1739 14.4783V20.1304H10.5652V14.4783C10.5652 14.2384 10.3703 14.0435 10.1304 14.0435ZM20.1304 18.8261C20.1304 19.5451 19.5451 20.1304 18.8261 20.1304H14.0435V14.913H17.087C17.3275 14.913 17.5217 14.7182 17.5217 14.4783V11C17.5217 10.7601 17.3275 10.5652 17.087 10.5652H14.0435V8.82609H17.087C17.3275 8.82609 17.5217 8.6312 17.5217 8.3913V4.91304C17.5217 4.67315 17.3275 4.47826 17.087 4.47826H13.6087C11.4509 4.47826 9.69565 6.23395 9.69565 8.3913V10.5652H6.65217C6.41228 10.5652 6.21739 10.7601 6.21739 11V14.4783C6.21739 14.7182 6.41228 14.913 6.65217 14.913H9.69565V20.1304H3.17391C2.45487 20.1304 1.86957 19.5451 1.86957 18.8261V3.17391C1.86957 2.45487 2.45487 1.86957 3.17391 1.86957H18.8261C19.5451 1.86957 20.1304 2.45487 20.1304 3.17391V18.8261Z" fill="white" stroke="white" stroke-width="0.5"/>
</svg>
