<svg width="20" height="20" viewBox="0 0 20 20" fill="none" xmlns="http://www.w3.org/2000/svg">
<path d="M17.8261 0H2.17391C0.975289 0 0 0.975289 0 2.17391V17.8261C0 19.0247 0.975289 20 2.17391 20H17.8261C19.0247 20 20 19.0247 20 17.8261V2.17391C20 0.975289 19.0247 0 17.8261 0ZM9.13043 13.0435H6.08696V10.4348H9.13043C9.37033 10.4348 9.56522 10.2399 9.56522 10V7.3913C9.56522 5.7131 10.9309 4.34783 12.6087 4.34783H15.6522V6.95652H12.6087C12.3682 6.95652 12.1739 7.15141 12.1739 7.3913V10C12.1739 10.2399 12.3682 10.4348 12.6087 10.4348H15.6522V13.0435H12.6087C12.3682 13.0435 12.1739 13.2384 12.1739 13.4783V19.1304H9.56522V13.4783C9.56522 13.2384 9.37033 13.0435 9.13043 13.0435ZM19.1304 17.8261C19.1304 18.5451 18.5451 19.1304 17.8261 19.1304H13.0435V13.913H16.087C16.3275 13.913 16.5217 13.7182 16.5217 13.4783V10C16.5217 9.76011 16.3275 9.56522 16.087 9.56522H13.0435V7.82609H16.087C16.3275 7.82609 16.5217 7.6312 16.5217 7.3913V3.91304C16.5217 3.67315 16.3275 3.47826 16.087 3.47826H12.6087C10.4509 3.47826 8.69565 5.23395 8.69565 7.3913V9.56522H5.65217C5.41228 9.56522 5.21739 9.76011 5.21739 10V13.4783C5.21739 13.7182 5.41228 13.913 5.65217 13.913H8.69565V19.1304H2.17391C1.45487 19.1304 0.869565 18.5451 0.869565 17.8261V2.17391C0.869565 1.45487 1.45487 0.869565 2.17391 0.869565H17.8261C18.5451 0.869565 19.1304 1.45487 19.1304 2.17391V17.8261Z" fill="#011D45"/>
</svg>
