<svg width="23" height="18" viewBox="0 0 23 18" fill="none" xmlns="http://www.w3.org/2000/svg">
<g clip-path="url(#clip0)">
<path d="M14.9906 8.15705L9.78796 5.19217C9.68676 5.1347 9.57176 5.10596 9.46136 5.10596C9.34176 5.10596 9.22216 5.13949 9.11636 5.20654C8.90936 5.33587 8.78516 5.56099 8.78516 5.81484V11.6871C8.78516 11.941 8.90936 12.1661 9.11636 12.2954C9.31876 12.4247 9.57636 12.4295 9.78796 12.3098L14.9906 9.3976C15.2114 9.27307 15.3494 9.03837 15.3494 8.77493C15.3448 8.51628 15.2114 8.28158 14.9906 8.15705ZM9.60856 11.4285V6.07349L14.3512 8.77493L9.60856 11.4285Z" fill="white"/>
<path d="M22.8252 4.11442C22.8068 3.92762 22.6182 2.26078 21.8638 1.43693C20.9852 0.459819 19.9778 0.344864 19.4948 0.287387C19.4488 0.282597 19.4074 0.277807 19.3706 0.273018L19.3384 0.268228C16.2518 0.0335285 11.5506 0 11.5046 0H11.5C11.454 0 6.7758 0.0335285 3.6294 0.268228L3.5972 0.273018C3.5742 0.277807 3.542 0.277807 3.5144 0.282597L3.4914 0.287387C3.013 0.344864 2.0194 0.464609 1.1408 1.47046C0.4094 2.28952 0.1978 3.92283 0.1748 4.10484V4.124C0.1656 4.21022 0 6.17403 0 8.09473V9.92922C0 11.826 0.1564 13.6988 0.1702 13.9047V13.9095C0.1886 14.0915 0.3772 15.7296 1.1316 16.5535C1.955 17.4923 3.0176 17.6216 3.588 17.6887H3.5972C3.6938 17.6982 3.7766 17.7078 3.8364 17.7222L3.8824 17.727C5.6856 17.9042 11.4678 17.9952 11.5276 17.9952H11.5322C11.7254 17.9952 16.3024 17.9617 19.3752 17.727L19.412 17.7222C19.4442 17.7174 19.4948 17.7126 19.5454 17.7078C20.0192 17.6551 21.0036 17.545 21.873 16.5535C22.5998 15.7344 22.8114 14.1011 22.8344 13.9143V13.8952C22.8528 13.6892 23.0046 11.8212 23.0046 9.92443V8.09473C23.0046 6.19798 22.8482 4.32517 22.8344 4.11921L22.8252 4.11442ZM22.172 9.93401C22.172 11.7685 22.0202 13.6126 22.0064 13.8185V13.8281C21.9558 14.2209 21.7166 15.4614 21.2566 15.9787C20.5988 16.7307 19.9088 16.8073 19.4534 16.8552C19.4028 16.86 19.3568 16.8648 19.3108 16.8696H19.3016C16.2058 17.1043 11.5828 17.1331 11.5368 17.1331C11.477 17.1331 5.773 17.0468 3.979 16.8696H3.9652C3.8824 16.8552 3.795 16.8457 3.6892 16.8313C3.128 16.7642 2.3644 16.6732 1.7526 15.9691L1.7434 15.9596C1.3202 15.5045 1.0718 14.4316 1.0074 13.8233C0.9982 13.7419 0.8372 11.8116 0.8372 9.92443V8.09473C0.8372 6.22672 0.9982 4.29165 1.0028 4.21022V4.20064C1.0718 3.59234 1.334 2.51464 1.7434 2.05003C2.415 1.27887 3.1418 1.19266 3.5788 1.13997H3.5972C3.634 1.13518 3.6616 1.13039 3.6892 1.13039H3.703C6.6562 0.910059 11.0078 0.87174 11.4954 0.866951H11.5C11.6932 0.866951 16.215 0.900479 19.2694 1.13039H19.2832C19.3154 1.13518 19.3522 1.13997 19.3844 1.14476H19.3982C19.872 1.20224 20.5896 1.28845 21.2612 2.03087L21.2658 2.03566C21.689 2.49548 21.9374 3.58276 22.0018 4.20064C22.011 4.28207 22.172 6.19798 22.172 8.09952V9.93401Z" fill="white"/>
</g>
<defs>
<clipPath id="clip0">
<rect width="23" height="18" fill="white"/>
</clipPath>
</defs>
</svg>
