<svg width="20" height="20" viewBox="0 0 20 20" fill="none" xmlns="http://www.w3.org/2000/svg">
<path d="M17.616 0H2.14829C0.963795 0 0 0.963795 0 2.14829V17.616C0 18.8005 0.963795 19.7643 2.14829 19.7643H17.616C18.8005 19.7643 19.7643 18.8005 19.7643 17.616V2.14829C19.7643 0.963795 18.8005 0 17.616 0ZM9.02284 12.8898H6.01522V10.3118H9.02284C9.2599 10.3118 9.45249 10.1192 9.45249 9.88215V7.3042C9.45249 5.64578 10.8021 4.29659 12.4601 4.29659H15.4677V6.87454H12.4601C12.2224 6.87454 12.0304 7.06713 12.0304 7.3042V9.88215C12.0304 10.1192 12.2224 10.3118 12.4601 10.3118H15.4677V12.8898H12.4601C12.2224 12.8898 12.0304 13.0824 12.0304 13.3194V18.905H9.45249V13.3194C9.45249 13.0824 9.2599 12.8898 9.02284 12.8898ZM18.905 17.616C18.905 18.3266 18.3266 18.905 17.616 18.905H12.8898V13.7491H15.8974C16.1351 13.7491 16.327 13.5565 16.327 13.3194V9.88215C16.327 9.64509 16.1351 9.45249 15.8974 9.45249H12.8898V7.73386H15.8974C16.1351 7.73386 16.327 7.54127 16.327 7.3042V3.86693C16.327 3.62986 16.1351 3.43727 15.8974 3.43727H12.4601C10.3278 3.43727 8.59318 5.17227 8.59318 7.3042V9.45249H5.58557C5.3485 9.45249 5.15591 9.64509 5.15591 9.88215V13.3194C5.15591 13.5565 5.3485 13.7491 5.58557 13.7491H8.59318V18.905H2.14829C1.43772 18.905 0.859318 18.3266 0.859318 17.616V2.14829C0.859318 1.43772 1.43772 0.859318 2.14829 0.859318H17.616C18.3266 0.859318 18.905 1.43772 18.905 2.14829V17.616Z" fill="white"/>
</svg>
