<svg width="183" height="20" viewBox="0 0 183 20" fill="none" xmlns="http://www.w3.org/2000/svg">
<path fill-rule="evenodd" clip-rule="evenodd" d="M86.4359 1.64285H93.5918C97.1296 1.64285 100.024 4.49459 100.024 7.98005C100.024 10.5149 98.4965 12.7329 96.2452 13.7627L98.7377 18.278H94.6371L90.5365 10.8318H93.5114C95.1195 10.8318 96.406 9.56434 96.406 7.98005C96.406 6.39575 95.1195 5.12831 93.5114 5.12831H86.3555V1.64285H86.4359Z" fill="#0E2244"/>
<path fill-rule="evenodd" clip-rule="evenodd" d="M86.5117 14.7925V18.3572H90.1299V14.7925H86.5117Z" fill="#0E2244"/>
<path fill-rule="evenodd" clip-rule="evenodd" d="M164.746 16.456L171.339 9.9604L164.746 3.46478L167.239 0.929901L173.832 7.50474L180.425 0.929901L182.998 3.46478L176.405 9.9604L182.998 16.456L180.425 18.9909L173.832 12.4161L167.239 18.9909L164.746 16.456Z" fill="#0E2244"/>
<path fill-rule="evenodd" clip-rule="evenodd" d="M112.727 1.64285H116.345V14.8717H125.993V18.3572H112.807C112.727 12.7329 112.727 7.1879 112.727 1.64285Z" fill="#0E2244"/>
<path fill-rule="evenodd" clip-rule="evenodd" d="M27.7383 1.64285L37.5476 19.8623L47.4373 1.64285H43.3367L37.5476 12.3369L31.7585 1.64285H27.7383Z" fill="#0E2244"/>
<path fill-rule="evenodd" clip-rule="evenodd" d="M73.9724 14.8717H58.1328V18.3572H73.9724V14.8717Z" fill="#0E2244"/>
<path fill-rule="evenodd" clip-rule="evenodd" d="M58.1328 5.12831V1.64285H70.3542H73.9724V11.7031H70.3542H58.1328V8.21769H70.3542V5.12831H58.1328Z" fill="#0E2244"/>
<path fill-rule="evenodd" clip-rule="evenodd" d="M153.008 14.8717H137.168V18.3572H153.008V14.8717Z" fill="#0E2244"/>
<path fill-rule="evenodd" clip-rule="evenodd" d="M137.168 5.12831V1.64285H149.389H153.008V11.7031H149.389H137.168V8.21769H149.389V5.12831H137.168Z" fill="#0E2244"/>
<path fill-rule="evenodd" clip-rule="evenodd" d="M5.30667 16.1392L10.6133 7.02945L16.0004 16.1392L17.2869 18.278H21.3071L16.0004 9.24747L10.6133 0.137756L5.30667 9.24747L0 18.3572H4.0202L5.30667 16.1392Z" fill="#0E2244"/>
</svg>
