<svg width="11" height="12" viewBox="0 0 11 12" fill="none" xmlns="http://www.w3.org/2000/svg">
<path d="M1.27068 12C1.05959 11.9996 0.852245 11.9471 0.669031 11.8477C0.256473 11.626 0 11.1955 0 10.7283V1.27179C0 0.803206 0.256473 0.374077 0.669031 0.152339C0.856608 0.0500909 1.0697 -0.00249065 1.28603 9.06639e-05C1.50236 0.00267198 1.71399 0.0603215 1.8988 0.167013L10.4198 5.00482C10.5974 5.11043 10.7438 5.2571 10.8453 5.43105C10.9468 5.60501 11 5.80057 11 5.99938C11 6.19819 10.9468 6.39374 10.8453 6.5677C10.7438 6.74166 10.5974 6.88832 10.4198 6.99394L1.89742 11.833C1.7083 11.9415 1.49168 11.9992 1.27068 12Z" fill="white"/>
</svg>
