<svg width="71" height="71" viewBox="0 0 71 71" fill="none" xmlns="http://www.w3.org/2000/svg">
<path d="M62.1936 40.3106L71 38.9892L70.7863 40.0403L63.1879 41.1193L63.176 41.1777L69.7536 45.1202L69.5399 46.1712L61.9444 41.5368L62.1936 40.3106Z" fill="white"/>
<path d="M61.0592 44.5381L68.8485 47.5851L68.4774 48.5279L60.688 45.4809L61.0592 44.5381Z" fill="white"/>
<path d="M60.1074 47.2178L67.1837 51.6694L65.6844 54.0373C65.0761 54.998 64.2825 55.5742 63.3034 55.7661C62.3244 55.958 61.2688 55.6979 60.1366 54.9856C59.0044 54.2733 58.3145 53.4355 58.067 52.4719C57.8195 51.5084 57.9999 50.5463 58.6081 49.5857L60.1074 47.2178ZM60.3233 48.5512L59.3663 50.0627C58.924 50.7613 58.8081 51.4727 59.0186 52.197C59.2358 52.9254 59.7893 53.5695 60.6789 54.1291C61.5684 54.6887 62.3865 54.9075 63.1329 54.7853C63.8861 54.6673 64.4838 54.259 64.9262 53.5604L65.8832 52.0489L60.3233 48.5512Z" fill="white"/>
<path d="M56.123 53.1638L61.9094 59.1888L58.1101 62.8143L57.4901 62.1688L60.5555 59.2437L58.6129 57.221L55.7202 59.9813L55.1002 59.3358L57.9929 56.5755L56.009 54.5098L52.8573 57.5173L52.2373 56.8718L56.123 53.1638Z" fill="white"/>
<path d="M46.778 61.2411C47.0163 60.2574 47.6343 59.4911 48.6322 58.9424C49.63 58.3938 50.6099 58.2814 51.5718 58.6052C52.5338 58.9291 53.3458 59.6892 54.0078 60.8855C54.6699 62.0818 54.8818 63.1719 54.6435 64.1557C54.4052 65.1395 53.7872 65.9057 52.7893 66.4544C51.7915 67.0031 50.8116 67.1155 49.8497 66.7916C48.8878 66.4678 48.0758 65.7077 47.4137 64.5114C46.7516 63.315 46.5397 62.2249 46.778 61.2411ZM51.2404 59.5359C50.516 59.2629 49.7909 59.3259 49.0652 59.7249C48.3395 60.124 47.8993 60.7017 47.7445 61.4581C47.5936 62.2215 47.7799 63.0762 48.3034 64.0222C48.8269 64.9681 49.4508 65.5776 50.1753 65.8506C50.9036 66.1305 51.6306 66.071 52.3563 65.6719C53.082 65.2729 53.5203 64.6917 53.6712 63.9283C53.826 63.1718 53.6416 62.3207 53.1181 61.3747C52.5946 60.4288 51.9687 59.8158 51.2404 59.5359Z" fill="white"/>
<path d="M39.3221 62.1949L43.3764 70.0986L42.3088 70.2305L38.8686 63.3916L38.8093 63.3989L37.1484 70.8681L36.0807 71L38.0765 62.3488L39.3221 62.1949Z" fill="white"/>
<path d="M34.8016 62.4603L34.382 70.7906L33.3672 70.7398L33.7868 62.4095L34.8016 62.4603Z" fill="white"/>
<path d="M31.9777 62.418L29.9737 70.5161L27.2463 69.8455C26.1399 69.5734 25.3408 69.0046 24.8491 68.1392C24.3574 67.2738 24.2718 66.1932 24.5925 64.8975C24.9131 63.6018 25.493 62.6849 26.3321 62.1467C27.1712 61.6084 28.1439 61.4754 29.2504 61.7474L31.9777 62.418ZM30.7765 63.0431L29.0356 62.6151C28.231 62.4172 27.5171 62.5321 26.8942 62.9599C26.2693 63.3953 25.8309 64.122 25.579 65.1401C25.327 66.1581 25.377 67.0009 25.729 67.6683C26.079 68.3434 26.6563 68.78 27.461 68.9778L29.2019 69.4059L30.7765 63.0431Z" fill="white"/>
<path d="M25.0771 60.545L21.1441 67.907L16.5016 65.4428L16.923 64.654L20.6686 66.6422L21.989 64.1706L18.4544 62.2944L18.8758 61.5056L22.4104 63.3818L23.7588 60.8577L19.9077 58.8135L20.3291 58.0247L25.0771 60.545Z" fill="white"/>
<path d="M14.4648 54.2451C15.4768 54.1635 16.4001 54.5094 17.2347 55.2829C18.0692 56.0564 18.4824 56.9492 18.4742 57.9612C18.466 58.9732 17.9952 59.9795 17.0618 60.9801C16.1284 61.9807 15.1557 62.5218 14.1437 62.6034C13.1317 62.6851 12.2084 62.3391 11.3739 61.5656C10.5393 60.7921 10.1261 59.8993 10.1343 58.8873C10.1425 57.8753 10.6133 56.869 11.5467 55.8684C12.4801 54.8678 13.4528 54.3267 14.4648 54.2451ZM17.4837 57.9381C17.5176 57.1668 17.2311 56.4999 16.6242 55.9374C16.0172 55.3748 15.3291 55.1384 14.5599 55.2281C13.7852 55.3236 13.0288 55.7669 12.2908 56.5581C11.5528 57.3492 11.1668 58.1305 11.1329 58.9017C11.0936 59.6788 11.3774 60.3486 11.9844 60.9112C12.5913 61.4737 13.2821 61.7073 14.0568 61.6117C14.8261 61.522 15.5797 61.0816 16.3177 60.2905C17.0557 59.4993 17.4444 58.7152 17.4837 57.9381Z" fill="white"/>
<path d="M11.1947 47.5355L4.97671 53.8905L4.51015 52.9242L9.91221 47.4896L9.88629 47.4359L2.25513 48.2538L1.78857 47.2875L10.6504 46.4082L11.1947 47.5355Z" fill="white"/>
<path d="M9.5346 43.4649L1.47506 45.7075L1.20187 44.732L9.2614 42.4894L9.5346 43.4649Z" fill="white"/>
<path d="M8.68231 40.8117L0.344749 41.5185L0.106681 38.7285C0.0101027 37.5966 0.294067 36.6597 0.958574 35.9178C1.62308 35.1758 2.62234 34.7483 3.95635 34.6352C5.29036 34.5221 6.3477 34.7752 7.12837 35.3947C7.90904 36.0141 8.34766 36.8898 8.44424 38.0216L8.68231 40.8117ZM7.70289 39.8782L7.55093 38.0973C7.48069 37.2742 7.14241 36.6372 6.53608 36.1863C5.92182 35.7361 5.09061 35.5555 4.04246 35.6443C2.99431 35.7332 2.20962 36.0509 1.68839 36.5973C1.15922 37.1444 0.929753 37.8296 0.999991 38.6527L1.15195 40.4336L7.70289 39.8782Z" fill="white"/>
<path d="M8.25331 33.5076L0 32.1334L0.866589 26.9622L1.75087 27.1095L1.05169 31.2816L3.82245 31.743L4.48223 27.8059L5.36652 27.9531L4.70673 31.8902L7.53643 32.3614L8.25531 28.0717L9.13959 28.2189L8.25331 33.5076Z" fill="white"/>
<path d="M10.8457 21.5448C11.2444 22.4756 11.2082 23.4581 10.737 24.4924C10.2658 25.5267 9.54754 26.2005 8.58209 26.5138C7.61665 26.8271 6.5099 26.7013 5.26185 26.1364C4.01379 25.5715 3.1904 24.8236 2.79169 23.8929C2.39297 22.9621 2.4292 21.9796 2.90037 20.9453C3.37155 19.911 4.08985 19.2372 5.05529 18.9239C6.02074 18.6106 7.12749 18.7364 8.37554 19.3013C9.6236 19.8662 10.447 20.6141 10.8457 21.5448ZM8.28989 25.5702C9.03442 25.3575 9.57803 24.8751 9.9207 24.1229C10.2634 23.3707 10.27 22.6452 9.94064 21.9465C9.60401 21.2445 8.94228 20.6702 7.95544 20.2235C6.9686 19.7768 6.10292 19.6598 5.35838 19.8725C4.60659 20.0818 4.05936 20.5626 3.71669 21.3148C3.37402 22.067 3.371 22.7941 3.70763 23.4961C4.037 24.1948 4.69511 24.7675 5.68195 25.2142C6.66878 25.6609 7.5381 25.7795 8.28989 25.5702Z" fill="white"/>
<path d="M16.2598 16.2537L8.25719 12.3588L9.03162 11.6144L15.9017 15.0253L15.9448 14.9839L12.7747 8.01651L13.5491 7.27211L17.1633 15.3852L16.2598 16.2537Z" fill="white"/>
<path d="M19.5355 13.4523L14.8386 6.54951L15.6795 5.98099L20.3764 12.8838L19.5355 13.4523Z" fill="white"/>
<path d="M21.8033 11.7782L18.4862 4.12079L21.0652 3.01078C22.1114 2.56047 23.0929 2.53174 24.0096 2.92457C24.9262 3.3174 25.65 4.12641 26.1807 5.3516C26.7114 6.57679 26.8059 7.65661 26.4642 8.59107C26.1225 9.52552 25.4285 10.2179 24.3823 10.6682L21.8033 11.7782ZM22.3807 10.5563L24.0269 9.84777C24.7878 9.52028 25.2865 8.99844 25.5232 8.28227C25.7566 7.5588 25.6649 6.71574 25.2479 5.75309C24.8309 4.79045 24.2797 4.14942 23.5945 3.83002C22.9061 3.50332 22.1815 3.50372 21.4206 3.83122L19.7744 4.53974L22.3807 10.5563Z" fill="white"/>
<path d="M28.5398 9.07271L27.2244 0.835627L32.4187 0.0114694L32.5596 0.894015L28.3688 1.55896L28.8104 4.32427L32.7651 3.69678L32.906 4.57933L28.9513 5.20681L29.4023 8.03096L33.7112 7.34728L33.8521 8.22983L28.5398 9.07271Z" fill="white"/>
<path d="M40.9269 7.72865C40.1674 8.40033 39.2209 8.67715 38.0875 8.55912C36.9541 8.44109 36.0855 7.97525 35.4816 7.16161C34.8778 6.34797 34.6471 5.2617 34.7896 3.90279C34.932 2.54389 35.3829 1.5286 36.1424 0.856926C36.9019 0.185253 37.8484 -0.091569 38.9818 0.0264616C40.1152 0.144492 40.9838 0.610328 41.5876 1.42397C42.1914 2.23761 42.4221 3.32388 42.2797 4.68279C42.1373 6.04169 41.6863 7.05698 40.9269 7.72865ZM36.2871 6.58657C36.7251 7.22322 37.3563 7.58446 38.1806 7.6703C39.005 7.75614 39.6974 7.53274 40.258 7.00009C40.8195 6.45955 41.1565 5.65203 41.2691 4.57755C41.3817 3.50307 41.219 2.6475 40.781 2.01086C40.3437 1.36631 39.7129 1.00112 38.8886 0.91528C38.0643 0.82944 37.3714 1.05679 36.81 1.59734C36.2494 2.12998 35.9128 2.93355 35.8001 4.00803C35.6875 5.08251 35.8498 5.94203 36.2871 6.58657Z" fill="white"/>
<path d="M47.5737 11.1371L48.7509 2.33803L49.7042 2.83507L48.6297 10.4102L48.6826 10.4378L54.3119 5.23738L55.2652 5.73442L48.6859 11.717L47.5737 11.1371Z" fill="white"/>
<path d="M51.3027 13.3681L56.3962 6.75058L57.2024 7.36709L52.1089 13.9846L51.3027 13.3681Z" fill="white"/>
<path d="M53.5732 14.9533L59.8036 9.38553L61.6788 11.4704C62.4395 12.3162 62.7787 13.2347 62.6962 14.2259C62.6137 15.2171 62.074 16.1582 61.0772 17.049C60.0803 17.9398 59.0831 18.3722 58.0857 18.3461C57.0882 18.3199 56.2091 17.884 55.4484 17.0382L53.5732 14.9533ZM54.919 15.1108L56.116 16.4416C56.6692 17.0568 57.3241 17.3624 58.0805 17.3585C58.8429 17.3494 59.6157 16.9948 60.3989 16.2949C61.1822 15.5949 61.6169 14.8704 61.703 14.1213C61.7951 13.3669 61.5645 12.6821 61.0113 12.067L59.8144 10.7362L54.919 15.1108Z" fill="white"/>
<path d="M58.3263 20.5092L65.7409 16.6434L68.1787 21.2891L67.3843 21.7033L65.4174 17.9551L62.9282 19.2529L64.7842 22.7899L63.9898 23.2041L62.1338 19.6671L59.5916 20.9925L61.6139 24.8463L60.8194 25.2605L58.3263 20.5092Z" fill="white"/>
<path d="M63.4922 31.566C62.6102 31.0648 62.0432 30.2602 61.7914 29.1523C61.5396 28.0445 61.7032 27.0749 62.2824 26.2437C62.8615 25.4124 63.8195 24.8458 65.1563 24.5439C66.4931 24.242 67.6025 24.3416 68.4846 24.8429C69.3666 25.3441 69.9335 26.1487 70.1854 27.2565C70.4372 28.3644 70.2735 29.334 69.6944 30.1652C69.1153 30.9965 68.1573 31.5631 66.8205 31.865C65.4837 32.1669 64.3742 32.0673 63.4922 31.566ZM63.0873 26.8193C62.6231 27.4373 62.4826 28.1492 62.6658 28.9549C62.8489 29.7606 63.2835 30.3425 63.9696 30.7007C64.6635 31.0571 65.5389 31.116 66.5959 30.8772C67.653 30.6385 68.4136 30.2102 68.8778 29.5922C69.3497 28.9725 69.4941 28.2597 69.311 27.454C69.1278 26.6483 68.6893 26.0672 67.9955 25.7108C67.3094 25.3526 66.4378 25.2929 65.3808 25.5316C64.3238 25.7704 63.5593 26.1996 63.0873 26.8193Z" fill="white"/>
</svg>
