<svg width="25" height="18" viewBox="0 0 25 18" fill="none" xmlns="http://www.w3.org/2000/svg">
<path d="M23.8176 4.11442C23.7984 3.92762 23.6016 2.26078 22.8144 1.43693C21.8976 0.459819 20.8464 0.344864 20.3424 0.287387C20.2944 0.282597 20.2512 0.277807 20.2128 0.273018L20.1792 0.268228C16.9584 0.0335285 12.0528 0 12.0048 0H12C11.952 0 7.0704 0.0335285 3.7872 0.268228L3.7536 0.273018C3.7296 0.277807 3.696 0.277807 3.6672 0.282597L3.6432 0.287387C3.144 0.344864 2.1072 0.464609 1.1904 1.47046C0.4272 2.28952 0.2064 3.92283 0.1824 4.10484V4.124C0.1728 4.21022 0 6.17403 0 8.09473V9.92922C0 11.826 0.1632 13.6988 0.1776 13.9047V13.9095C0.1968 14.0915 0.3936 15.7296 1.1808 16.5535C2.04 17.4923 3.1488 17.6216 3.744 17.6887H3.7536C3.8544 17.6982 3.9408 17.7078 4.0032 17.7222L4.0512 17.727C5.9328 17.9042 11.9664 17.9952 12.0288 17.9952H12.0336C12.2352 17.9952 17.0112 17.9617 20.2176 17.727L20.256 17.7222C20.2896 17.7174 20.3424 17.7126 20.3952 17.7078C20.8896 17.6551 21.9168 17.545 22.824 16.5535C23.5824 15.7344 23.8032 14.1011 23.8272 13.9143V13.8952C23.8464 13.6892 24.0048 11.8212 24.0048 9.92443V8.09473C24.0048 6.19798 23.8416 4.32517 23.8272 4.11921L23.8176 4.11442ZM23.136 9.93401C23.136 11.7685 22.9776 13.6126 22.9632 13.8185V13.8281C22.9104 14.2209 22.6608 15.4614 22.1808 15.9787C21.4944 16.7307 20.7744 16.8073 20.2992 16.8552C20.2464 16.86 20.1984 16.8648 20.1504 16.8696H20.1408C16.9104 17.1043 12.0864 17.1331 12.0384 17.1331C11.976 17.1331 6.024 17.0468 4.152 16.8696H4.1376C4.0512 16.8552 3.96 16.8457 3.8496 16.8313C3.264 16.7642 2.4672 16.6732 1.8288 15.9691L1.8192 15.9596C1.3776 15.5045 1.1184 14.4316 1.0512 13.8233C1.0416 13.7419 0.8736 11.8116 0.8736 9.92443V8.09473C0.8736 6.22672 1.0416 4.29165 1.0464 4.21022V4.20064C1.1184 3.59234 1.392 2.51464 1.8192 2.05003C2.52 1.27887 3.2784 1.19266 3.7344 1.13997H3.7536C3.792 1.13518 3.8208 1.13039 3.8496 1.13039H3.864C6.9456 0.910059 11.4864 0.87174 11.9952 0.866951H12C12.2016 0.866951 16.92 0.900479 20.1072 1.13039H20.1216C20.1552 1.13518 20.1936 1.13997 20.2272 1.14476H20.2416C20.736 1.20224 21.4848 1.28845 22.1856 2.03087L22.1904 2.03566C22.632 2.49548 22.8912 3.58276 22.9584 4.20064C22.968 4.28207 23.136 6.19798 23.136 8.09952V9.93401Z" fill="#011D45"/>
<path d="M15.6432 8.15699L10.2144 5.19211C10.1088 5.13463 9.98877 5.1059 9.87357 5.1059C9.74877 5.1059 9.62397 5.13942 9.51357 5.20648C9.29757 5.33581 9.16797 5.56093 9.16797 5.81478V11.6871C9.16797 11.9409 9.29757 12.166 9.51357 12.2954C9.72477 12.4247 9.99357 12.4295 10.2144 12.3097L15.6432 9.39754C15.8736 9.273 16.0176 9.0383 16.0176 8.77487C16.0128 8.51622 15.8736 8.28152 15.6432 8.15699ZM10.0272 11.4284V6.07343L14.976 8.77487L10.0272 11.4284Z" fill="#011D45"/>
</svg>
