<svg width="26" height="20" viewBox="0 0 26 20" fill="none" xmlns="http://www.w3.org/2000/svg">
<path d="M16.6432 9.15699L11.2144 6.19211C11.1088 6.13463 10.9888 6.1059 10.8736 6.1059C10.7488 6.1059 10.624 6.13942 10.5136 6.20648C10.2976 6.33581 10.168 6.56093 10.168 6.81478V12.6871C10.168 12.9409 10.2976 13.166 10.5136 13.2954C10.7248 13.4247 10.9936 13.4295 11.2144 13.3097L16.6432 10.3975C16.8736 10.273 17.0176 10.0383 17.0176 9.77487C17.0128 9.51622 16.8736 9.28152 16.6432 9.15699ZM11.0272 12.4284V7.07343L15.976 9.77487L11.0272 12.4284Z" fill="#011D45" stroke="#011D45" stroke-width="0.5"/>
<path d="M24.8176 5.11442C24.7984 4.92762 24.6016 3.26078 23.8144 2.43693C22.8976 1.45982 21.8464 1.34486 21.3424 1.28739C21.2944 1.2826 21.2512 1.27781 21.2128 1.27302L21.1792 1.26823C17.9584 1.03353 13.0528 1 13.0048 1H13C12.952 1 8.0704 1.03353 4.7872 1.26823L4.7536 1.27302C4.7296 1.27781 4.696 1.27781 4.6672 1.2826L4.6432 1.28739C4.144 1.34486 3.1072 1.46461 2.1904 2.47046C1.4272 3.28952 1.2064 4.92283 1.1824 5.10484V5.124C1.1728 5.21022 1 7.17403 1 9.09473V10.9292C1 12.826 1.1632 14.6988 1.1776 14.9047V14.9095C1.1968 15.0915 1.3936 16.7296 2.1808 17.5535C3.04 18.4923 4.1488 18.6216 4.744 18.6887H4.7536C4.8544 18.6982 4.9408 18.7078 5.0032 18.7222L5.0512 18.727C6.9328 18.9042 12.9664 18.9952 13.0288 18.9952H13.0336C13.2352 18.9952 18.0112 18.9617 21.2176 18.727L21.256 18.7222C21.2896 18.7174 21.3424 18.7126 21.3952 18.7078C21.8896 18.6551 22.9168 18.545 23.824 17.5535C24.5824 16.7344 24.8032 15.1011 24.8272 14.9143V14.8952C24.8464 14.6892 25.0048 12.8212 25.0048 10.9244V9.09473C25.0048 7.19798 24.8416 5.32517 24.8272 5.11921L24.8176 5.11442ZM24.136 10.934C24.136 12.7685 23.9776 14.6126 23.9632 14.8185V14.8281C23.9104 15.2209 23.6608 16.4614 23.1808 16.9787C22.4944 17.7307 21.7744 17.8073 21.2992 17.8552C21.2464 17.86 21.1984 17.8648 21.1504 17.8696H21.1408C17.9104 18.1043 13.0864 18.1331 13.0384 18.1331C12.976 18.1331 7.024 18.0468 5.152 17.8696H5.1376C5.0512 17.8552 4.96 17.8457 4.8496 17.8313C4.264 17.7642 3.4672 17.6732 2.8288 16.9691L2.8192 16.9596C2.3776 16.5045 2.1184 15.4316 2.0512 14.8233C2.0416 14.7419 1.8736 12.8116 1.8736 10.9244V9.09473C1.8736 7.22672 2.0416 5.29165 2.0464 5.21022V5.20064C2.1184 4.59234 2.392 3.51464 2.8192 3.05003C3.52 2.27887 4.2784 2.19266 4.7344 2.13997H4.7536C4.792 2.13518 4.8208 2.13039 4.8496 2.13039H4.864C7.9456 1.91006 12.4864 1.87174 12.9952 1.86695H13C13.2016 1.86695 17.92 1.90048 21.1072 2.13039H21.1216C21.1552 2.13518 21.1936 2.13997 21.2272 2.14476H21.2416C21.736 2.20224 22.4848 2.28845 23.1856 3.03087L23.1904 3.03566C23.632 3.49548 23.8912 4.58276 23.9584 5.20064C23.968 5.28207 24.136 7.19798 24.136 9.09952V10.934Z" fill="#011D45" stroke="#011D45" stroke-width="0.5"/>
</svg>
